<svg width="100%" height="100%" viewBox="0 0 100 100" version="1.1" xmlns="http://www.w3.org/2000/svg" xmlns:xlink="http://www.w3.org/1999/xlink" xml:space="preserve" xmlns:serif="http://www.serif.com/" style="fill-rule:evenodd;clip-rule:evenodd;stroke-linejoin:round;stroke-miterlimit:2;">
    <g id="Artboard1" transform="matrix(0.970874,0,0,1,33.9806,68)">
        <rect x="-35" y="-68" width="103" height="100" style="fill:none;"/>
        <g transform="matrix(1,0,0,1,0.513391,3.77476e-15)">
            <g id="file--transfer_1_" transform="matrix(3.21875,0,0,3.125,-35.515,-11.75)">
                <path d="M31,13.36L1,13.36C0.801,13.36 0.64,13.199 0.64,13L0.64,-3L1.36,-3L1.36,12.64L30.64,12.64L30.64,-6.8L31.361,-7.48L31.361,13C31.36,13.199 31.199,13.36 31,13.36Z" style="fill:rgb(89,89,89);fill-rule:nonzero;"/>
            </g>
            <g id="file--transfer_1_1" serif:id="file--transfer_1_" transform="matrix(3.21875,0,0,3.125,-35.5118,-114.875)">
                <path d="M22,15.64C22.096,15.64 21.64,16.36 21.64,16.36L1.36,16.36L1.36,31L0.64,31L0.64,16C0.64,15.801 0.801,15.64 1,15.64L22,15.64Z" style="fill:rgb(89,89,89);fill-rule:nonzero;"/>
            </g>
            <g id="arrow" transform="matrix(2.276,2.20971,-2.276,2.20971,11.9217,-128.83)">
                <path d="M26.36,14.522L25.64,14.522L25.64,3.869L22.255,7.254L21.745,6.745L26,2.491L30.255,6.746L29.745,7.255L26.36,3.869L26.36,14.522Z" style="fill:rgb(89,89,89);fill-rule:nonzero;"/>
            </g>
            <g transform="matrix(13.7328,0,0,3.90625,-95.4224,-18.7187)">
                <path d="M6.103,3.243C6.177,3.243 6.26,3.269 6.352,3.321C6.445,3.373 6.534,3.454 6.62,3.564C6.707,3.674 6.778,3.824 6.835,4.012L6.627,4.809C6.567,4.654 6.512,4.529 6.464,4.435C6.415,4.341 6.363,4.271 6.308,4.226C6.253,4.18 6.185,4.158 6.103,4.158C5.985,4.158 5.886,4.234 5.805,4.386C5.724,4.539 5.66,4.745 5.611,5.004C5.563,5.263 5.528,5.557 5.506,5.884C5.484,6.212 5.473,6.551 5.473,6.901C5.473,7.199 5.484,7.509 5.504,7.83C5.525,8.151 5.559,8.449 5.604,8.725C5.65,9.001 5.709,9.224 5.782,9.396C5.856,9.568 5.944,9.654 6.049,9.654C6.138,9.654 6.217,9.592 6.284,9.469C6.351,9.346 6.404,9.172 6.442,8.949C6.48,8.725 6.499,8.457 6.499,8.146L6.499,7.543L6.066,7.543L6.103,6.687L6.895,6.687L6.89,8.477C6.888,8.814 6.888,9.15 6.891,9.484C6.894,9.818 6.898,10.153 6.904,10.491L6.702,10.491L6.605,9.751C6.512,10.05 6.417,10.264 6.322,10.393C6.227,10.523 6.114,10.588 5.983,10.588C5.829,10.588 5.694,10.494 5.579,10.306C5.463,10.118 5.366,9.86 5.289,9.532C5.212,9.205 5.155,8.822 5.117,8.384C5.079,7.947 5.06,7.481 5.06,6.988C5.06,6.431 5.083,5.923 5.13,5.466C5.176,5.009 5.244,4.613 5.333,4.279C5.423,3.945 5.532,3.689 5.661,3.511C5.79,3.332 5.938,3.243 6.103,3.243Z" style="fill:rgb(24,24,24);fill-rule:nonzero;"/>
                <path d="M7.249,3.36L7.682,3.36L7.682,10.481L7.289,10.481L7.289,3.953C7.289,3.947 7.285,3.898 7.279,3.807C7.272,3.716 7.266,3.622 7.26,3.525C7.254,3.428 7.251,3.373 7.249,3.36Z" style="fill:rgb(24,24,24);fill-rule:nonzero;"/>
                <path d="M8.565,4.323L7.987,4.323L7.987,3.36L9.56,3.36L9.56,4.323L8.973,4.323L8.973,10.481L8.565,10.481L8.565,4.323Z" style="fill:rgb(24,24,24);fill-rule:nonzero;"/>
            </g>
        </g>
    </g>
</svg>
