<svg width="100%" height="100%" viewBox="0 0 100 100" version="1.1" xmlns="http://www.w3.org/2000/svg" xmlns:xlink="http://www.w3.org/1999/xlink" xml:space="preserve" xmlns:serif="http://www.serif.com/" style="fill-rule:evenodd;clip-rule:evenodd;stroke-linejoin:round;stroke-miterlimit:2;">
    <g id="Artboard1" transform="matrix(0.970874,0,0,1,33.9806,68)">
        <rect x="-35" y="-68" width="103" height="100" style="fill:none;"/>
        <g transform="matrix(1,0,0,1,0.513391,3.77476e-15)">
            <g id="file--transfer_1_" transform="matrix(3.21875,0,0,3.125,-35.515,-11.75)">
                <path d="M31,13.36L1,13.36C0.801,13.36 0.64,13.199 0.64,13L0.64,-3L1.36,-3L1.36,12.64L30.64,12.64L30.64,-6.8L31.361,-7.48L31.361,13C31.36,13.199 31.199,13.36 31,13.36Z" style="fill:rgb(89,89,89);fill-rule:nonzero;"/>
            </g>
            <g id="file--transfer_1_1" serif:id="file--transfer_1_" transform="matrix(3.21875,0,0,3.125,-35.5118,-114.875)">
                <path d="M22,15.64C22.096,15.64 21.64,16.36 21.64,16.36L1.36,16.36L1.36,31L0.64,31L0.64,16C0.64,15.801 0.801,15.64 1,15.64L22,15.64Z" style="fill:rgb(89,89,89);fill-rule:nonzero;"/>
            </g>
            <g id="arrow" transform="matrix(2.276,2.20971,-2.276,2.20971,11.9217,-128.83)">
                <path d="M26.36,14.522L25.64,14.522L25.64,3.869L22.255,7.254L21.745,6.745L26,2.491L30.255,6.746L29.745,7.255L26.36,3.869L26.36,14.522Z" style="fill:rgb(89,89,89);fill-rule:nonzero;"/>
            </g>
            <g transform="matrix(13.7328,0,0,3.90625,-95.4224,-18.7187)">
                <path d="M5.145,3.36L5.807,3.36C5.945,3.36 6.072,3.426 6.186,3.559C6.3,3.692 6.391,3.913 6.461,4.221C6.53,4.529 6.565,4.952 6.565,5.49C6.565,5.983 6.529,6.387 6.458,6.702C6.387,7.016 6.293,7.248 6.179,7.397C6.064,7.546 5.941,7.621 5.812,7.621L5.579,7.621L5.579,10.481L5.188,10.481L5.188,3.953L5.145,3.36ZM5.581,4.323L5.581,6.677L5.821,6.677C5.927,6.677 6.008,6.565 6.065,6.342C6.121,6.118 6.149,5.834 6.149,5.49C6.149,5.134 6.122,4.85 6.067,4.639C6.013,4.428 5.932,4.323 5.824,4.323L5.581,4.323Z" style="fill:rgb(24,24,24);fill-rule:nonzero;"/>
                <path d="M8.662,6.93C8.662,7.618 8.622,8.229 8.54,8.764C8.458,9.299 8.342,9.719 8.191,10.024C8.04,10.328 7.862,10.481 7.656,10.481L6.915,10.481L6.915,3.953C6.915,3.947 6.912,3.898 6.905,3.807C6.899,3.717 6.892,3.623 6.884,3.525C6.876,3.428 6.872,3.373 6.87,3.36L7.659,3.36C7.819,3.36 7.96,3.446 8.084,3.618C8.207,3.79 8.312,4.034 8.399,4.352C8.485,4.67 8.551,5.046 8.595,5.481C8.64,5.915 8.662,6.398 8.662,6.93ZM8.241,6.969C8.241,6.638 8.23,6.316 8.208,6.001C8.186,5.687 8.151,5.403 8.102,5.15C8.054,4.897 7.991,4.696 7.914,4.547C7.837,4.398 7.744,4.323 7.634,4.323L7.309,4.323L7.309,9.518L7.639,9.518C7.784,9.518 7.9,9.396 7.988,9.153C8.077,8.91 8.141,8.594 8.181,8.204C8.221,7.815 8.241,7.404 8.241,6.969Z" style="fill:rgb(24,24,24);fill-rule:nonzero;"/>
                <path d="M8.953,3.36L10.176,3.36L10.176,4.323L9.389,4.323L9.389,6.337L9.996,6.337L9.996,7.3L9.389,7.3L9.389,10.481L8.993,10.481L8.993,3.953L8.953,3.36Z" style="fill:rgb(24,24,24);fill-rule:nonzero;"/>
            </g>
        </g>
    </g>
</svg>
