<?xml version="1.0" encoding="UTF-8" standalone="no"?>
<!DOCTYPE svg PUBLIC "-//W3C//DTD SVG 1.1//EN" "http://www.w3.org/Graphics/SVG/1.1/DTD/svg11.dtd">
<svg width="100%" height="100%" viewBox="0 0 100 100" version="1.1" xmlns="http://www.w3.org/2000/svg" xmlns:xlink="http://www.w3.org/1999/xlink" xml:space="preserve" xmlns:serif="http://www.serif.com/" style="fill-rule:evenodd;clip-rule:evenodd;stroke-linejoin:round;stroke-miterlimit:2;">
    <g id="Artboard1" transform="matrix(0.970874,0,0,1,33.9806,68)">
        <rect x="-35" y="-68" width="103" height="100" style="fill:none;"/>
        <g transform="matrix(1,0,0,1,0.513391,3.77476e-15)">
            <g id="file--transfer_1_" transform="matrix(3.21875,0,0,3.125,-35.515,-11.75)">
                <path d="M31,13.36L1,13.36C0.801,13.36 0.64,13.199 0.64,13L0.64,-3L1.36,-3L1.36,12.64L30.64,12.64L30.64,-6.8L31.361,-7.48L31.361,13C31.36,13.199 31.199,13.36 31,13.36Z" style="fill:rgb(89,89,89);fill-rule:nonzero;"/>
            </g>
            <g id="file--transfer_1_1" serif:id="file--transfer_1_" transform="matrix(3.21875,0,0,3.125,-35.5118,-114.875)">
                <path d="M22,15.64C22.096,15.64 21.64,16.36 21.64,16.36L1.36,16.36L1.36,31L0.64,31L0.64,16C0.64,15.801 0.801,15.64 1,15.64L22,15.64Z" style="fill:rgb(89,89,89);fill-rule:nonzero;"/>
            </g>
            <g id="arrow" transform="matrix(2.276,2.20971,-2.276,2.20971,11.9217,-128.83)">
                <path d="M26.36,14.522L25.64,14.522L25.64,3.869L22.255,7.254L21.745,6.745L26,2.491L30.255,6.746L29.745,7.255L26.36,3.869L26.36,14.522Z" style="fill:rgb(89,89,89);fill-rule:nonzero;"/>
            </g>
            <g transform="matrix(13.7328,0,0,3.90625,-95.4224,-18.7187)">
                <path d="M5.596,3.36L5.596,8.097C5.596,8.571 5.637,8.95 5.721,9.236C5.805,9.521 5.916,9.664 6.055,9.664C6.15,9.664 6.231,9.6 6.3,9.474C6.368,9.348 6.421,9.168 6.458,8.934C6.495,8.701 6.513,8.422 6.513,8.097L6.513,3.36L6.835,3.36L6.835,7.776C6.835,8.457 6.799,9.004 6.727,9.416C6.655,9.827 6.557,10.126 6.434,10.311C6.31,10.495 6.17,10.588 6.015,10.588C5.751,10.588 5.548,10.345 5.406,9.858C5.265,9.372 5.194,8.678 5.194,7.776L5.194,3.944L5.148,3.36L5.596,3.36Z" style="fill:rgb(24,24,24);fill-rule:nonzero;"/>
                <path d="M7.246,3.36L7.961,3.36C8.089,3.36 8.205,3.42 8.312,3.54C8.418,3.66 8.504,3.861 8.568,4.143C8.633,4.425 8.665,4.813 8.665,5.306C8.665,5.578 8.644,5.841 8.603,6.094C8.561,6.346 8.506,6.562 8.439,6.74C8.371,6.919 8.299,7.04 8.221,7.105L8.859,10.481L8.414,10.481L7.836,7.31L7.679,7.31L7.679,10.481L7.289,10.481L7.289,3.953L7.246,3.36ZM7.679,4.333L7.679,6.356L7.862,6.356C7.936,6.356 8.002,6.325 8.061,6.264C8.12,6.202 8.166,6.094 8.201,5.938C8.235,5.782 8.252,5.568 8.252,5.296C8.252,5.082 8.237,4.903 8.206,4.761C8.176,4.618 8.136,4.511 8.087,4.44C8.037,4.368 7.983,4.333 7.924,4.333L7.679,4.333Z" style="fill:rgb(24,24,24);fill-rule:nonzero;"/>
                <path d="M9.022,3.36L9.455,3.36L9.455,9.518L10.273,9.518L10.273,10.481L9.059,10.481L9.059,3.953L9.022,3.36Z" style="fill:rgb(24,24,24);fill-rule:nonzero;"/>
            </g>
        </g>
    </g>
</svg>
