<?xml version="1.0" encoding="utf-8"?>
<!-- Generator: Adobe Illustrator 15.1.0, SVG Export Plug-In . SVG Version: 6.00 Build 0)  -->
<!DOCTYPE svg PUBLIC "-//W3C//DTD SVG 1.1//EN" "http://www.w3.org/Graphics/SVG/1.1/DTD/svg11.dtd">
<svg version="1.1" id="Layer_1" xmlns="http://www.w3.org/2000/svg" xmlns:xlink="http://www.w3.org/1999/xlink" x="0px" y="0px"
	 width="54px" height="48.417px" viewBox="-24 -17.584 54 48.417" enable-background="new -24 -17.584 54 48.417"
	 xml:space="preserve">
<g>
	<path d="M-5.782,16.473c0,0.357-0.303,0.659-0.66,0.659c-0.385,0-0.687-0.302-0.687-0.659v-3.074l-2.745-2.746l-5.161,6.232
		c-0.111,0.192-0.33,0.245-0.522,0.245c-0.136,0-0.3-0.027-0.438-0.137c-0.275-0.273-0.302-0.659-0.056-0.961l5.216-6.341
		l-5.189-5.187c-0.273-0.275-0.273-0.686,0-0.933c0.275-0.275,0.66-0.275,0.933,0l7.963,7.933V-1.425c0-0.356,0.301-0.66,0.687-0.66
		c0.358,0,0.66,0.303,0.66,0.66L-5.782,16.473L-5.782,16.473z"/>
</g>
<g>
	<path d="M1.936-12.938c0-0.779,0.302-1.438,0.66-1.438c0.383,0,0.687,0.66,0.687,1.438v39.121c0,0.781-0.302,1.44-0.687,1.44
		c-0.358,0-0.66-0.659-0.66-1.44V-12.938z"/>
</g>
<g>
	<path d="M20.884,8.978c0-2.362-1.921-3.954-4.283-3.954c-2.333,0-4.255,1.592-4.255,3.954v7.492v0.085
		c0,0.055-0.026,0.08-0.026,0.106c-0.03,0.056-0.03,0.085-0.056,0.11c-0.082,0.164-0.219,0.273-0.41,0.33
		c0,0-0.029,0.027-0.056,0.027h-0.055H11.66c-0.191,0-0.383-0.082-0.521-0.221c-0.056-0.08-0.083-0.137-0.109-0.219
		c-0.028-0.083-0.028-0.135-0.028-0.221V8.976V8.754V-1.43c0-0.358,0.3-0.66,0.659-0.66c0.385,0,0.686,0.301,0.686,0.66v7.082
		c1.019-1.207,2.555-1.977,4.255-1.977c3.104,0,5.628,2.198,5.628,5.299v7.493c0,0.357-0.299,0.659-0.686,0.659
		c-0.358,0-0.659-0.302-0.659-0.659V8.978z"/>
</g>
</svg>
