<?xml version="1.0" encoding="UTF-8"?>
<svg width="38px" height="32px" viewBox="0 0 38 32" version="1.1" xmlns="http://www.w3.org/2000/svg" xmlns:xlink="http://www.w3.org/1999/xlink">
    <!-- Generator: Sketch 61.2 (89653) - https://sketch.com -->
    <title>github</title>
    <desc>Created with Sketch.</desc>
    <g id="Page-1" stroke="none" stroke-width="1" fill="none" fill-rule="evenodd">
        <g id="github" fill="#000000" fill-rule="nonzero">
            <path d="M25.3932308,18.686359 C23.9204103,18.686359 22.7257436,20.3380513 22.7257436,22.3770256 C22.7257436,24.4164103 23.9204103,26.0689231 25.3932308,26.0689231 C26.8652308,26.0689231 28.059077,24.4164103 28.059077,22.3770256 C28.0594872,20.3380513 26.8652308,18.686359 25.3932308,18.686359 Z M34.6777436,9.07979487 C34.9813333,8.33066667 34.9965128,4.07425641 33.3772308,0 C33.3772308,0 29.6615385,0.407384615 24.0397949,4.26502564 C22.8615385,3.93969231 20.8660513,3.77682051 18.8717949,3.77682051 C16.8775385,3.77682051 14.8828718,3.93928205 13.7033846,4.26461538 C8.08164103,0.407384615 4.36717949,0 4.36717949,0 C2.74748718,4.07425641 2.76184615,8.33066667 3.06584615,9.07979487 C1.16266667,11.1462564 0,13.6278974 0,17.0186667 C0,31.76 12.2293333,31.9963077 15.3165128,31.9963077 C16.0151795,31.9963077 17.4038974,31.9979487 18.8717949,32 C20.3396923,31.9979487 21.7292308,31.9963077 22.4270769,31.9963077 C25.5142564,31.9963077 37.7435897,31.76 37.7435897,17.0186667 C37.7435897,13.6278974 36.5809231,11.1462564 34.6777436,9.07979487 Z M18.929641,30.1842051 L18.814359,30.1842051 C11.0773333,30.1842051 5.05230769,29.2603077 5.05230769,21.7411282 C5.05230769,19.9405128 5.68779487,18.2683077 7.19753846,16.8808205 C9.71692308,14.5686154 13.9778462,15.7932308 18.814359,15.7932308 C18.8328205,15.7932308 18.8525128,15.7928205 18.8722051,15.792 C18.8923077,15.7928205 18.9115897,15.7932308 18.9300513,15.7932308 C23.7665641,15.7932308 28.0287179,14.5690256 30.5468718,16.8808205 C32.0566154,18.2683077 32.6921026,19.9405128 32.6921026,21.7411282 C32.6916923,29.2603077 26.6666667,30.1842051 18.929641,30.1842051 Z M12.350359,18.686359 C10.878359,18.686359 9.68451282,20.3380513 9.68451282,22.3770256 C9.68451282,24.4164103 10.878359,26.0689231 12.350359,26.0689231 C13.824,26.0689231 15.0178462,24.4164103 15.0178462,22.3770256 C15.0174359,20.3380513 13.8235897,18.686359 12.350359,18.686359 Z" id="Shape"></path>
        </g>
    </g>
</svg>