<svg width="55px" height="27px" viewBox="0 0 55 27" version="1.1" xmlns="http://www.w3.org/2000/svg" xmlns:xlink="http://www.w3.org/1999/xlink">
        <g id="pointer" transform="translate(-1.000000, -1.000000)" fill="#FFFFFF" fill-rule="nonzero">
            <g id="logo" transform="translate(28.174419, 14.500000) rotate(-90.000000) translate(-28.174419, -14.500000) translate(14.500000, -13.500000)">
                <path d="M14.6094884,40.988093 C14.6094884,41.4530233 14.2148837,41.8463256 13.7499535,41.8463256 C13.2485581,41.8463256 12.8552558,41.4530233 12.8552558,40.988093 L12.8552558,36.9847442 L9.28037209,33.4085581 L2.55906977,41.5246512 C2.41451163,41.7746977 2.12930233,41.8437209 1.87925581,41.8437209 C1.70213953,41.8437209 1.48855814,41.8085581 1.30883721,41.6653023 C0.950697674,41.3097674 0.915534884,40.8070698 1.23590698,40.4137674 L8.02883721,32.1557209 L1.27106977,25.4005581 C0.915534884,25.0424186 0.915534884,24.5071628 1.27106977,24.1854884 C1.6292093,23.8273488 2.13060465,23.8273488 2.48613953,24.1854884 L12.8565581,34.5168372 L12.8565581,17.6790698 C12.8565581,17.2154419 13.2485581,16.8195349 13.7512558,16.8195349 C14.2174884,16.8195349 14.6107907,17.2141395 14.6107907,17.6790698 L14.6094884,40.988093 L14.6094884,40.988093 Z" id="Path"/>
                <path d="M24.6608372,2.68539535 C24.6608372,1.67088372 25.0541395,0.812651163 25.5203721,0.812651163 C26.0191628,0.812651163 26.4150698,1.67218605 26.4150698,2.68539535 L26.4150698,53.6336744 C26.4150698,54.6507907 26.0217674,55.5090233 25.5203721,55.5090233 C25.0541395,55.5090233 24.6608372,54.6507907 24.6608372,53.6336744 L24.6608372,2.68539535 Z" id="Path"/>
            </g>
        </g>
</svg>